# xmcd
#
# Track frame offsets: 
#        150
#        17411
#        32602
#        47251
#        61862
#        78841
#        96043
#        108613
#        128061
#        143984
#        160092
#        177167
#        193060
#
# Disc length: 2722 seconds
#
# Revision: 0
# Processed by: cddbd v1.5.2PL0 Copyright (c) Steve Scherf et al.
# Submitted via: ExactAudioCopy v0.99pb3
#
DISCID=9a0aa00d
DTITLE=Joshua Creek - Heaven's Not That Far
DYEAR=2007
DGENRE=Country
TTITLE0=Sacred Ground
TTITLE1=She's My Everything
TTITLE2=This Quilt
TTITLE3=Honey Do List
TTITLE4=The Women in My Life
TTITLE5=Last Chance, Colorado
TTITLE6=Mornin' Dad
TTITLE7=His Girl
TTITLE8=Weekend in Rio
TTITLE9=The Human Race
TTITLE10=Life's Parade
TTITLE11=Let Go
TTITLE12=If Any of You
EXTD=
EXTT0=
EXTT1=
EXTT2=
EXTT3=
EXTT4=
EXTT5=
EXTT6=
EXTT7=
EXTT8=
EXTT9=
EXTT10=
EXTT11=
EXTT12=
PLAYORDER=
